<svg width="2360" height="400" viewBox="0 0 2360 400" fill="none" xmlns="http://www.w3.org/2000/svg">
<g clip-path="url(#clip0_334_2)">
<path fill-rule="evenodd" clip-rule="evenodd" d="M1174.78 524C1143.67 475.16 1107.12 429.471 1065.53 387.881C915.235 237.584 711.388 153.148 498.836 153.148C286.284 153.148 82.4379 237.584 -67.8591 387.881C-109.448 429.471 -145.995 475.16 -177.104 524H1174.78Z" fill="url(#paint0_linear_334_2)"/>
<path fill-rule="evenodd" clip-rule="evenodd" d="M2035.8 524C1999.23 466.58 1956.26 412.864 1907.37 363.969C1730.67 187.269 1491.01 88 1241.12 88C991.228 88 751.571 187.269 574.871 363.969C525.976 412.864 483.009 466.58 446.435 524H2035.8Z" fill="url(#paint1_linear_334_2)"/>
<path fill-rule="evenodd" clip-rule="evenodd" d="M3295.68 524C3251.72 454.991 3200.09 390.433 3141.32 331.669C2928.96 119.305 2640.93 2.26742e-05 2340.6 0C2040.27 -2.26742e-05 1752.25 119.305 1539.88 331.669C1481.12 390.433 1429.48 454.991 1385.52 524H3295.68Z" fill="url(#paint2_linear_334_2)"/>
</g>
<defs>
<linearGradient id="paint0_linear_334_2" x1="498.836" y1="153.148" x2="498.836" y2="439.5" gradientUnits="userSpaceOnUse">
<stop stop-color="#BB0841" stop-opacity="0.1"/>
<stop offset="0.0001" stop-color="#BB0841" stop-opacity="0.15"/>
<stop offset="1" stop-color="#BB0841" stop-opacity="0"/>
</linearGradient>
<linearGradient id="paint1_linear_334_2" x1="1241.12" y1="88" x2="1241.12" y2="422.5" gradientUnits="userSpaceOnUse">
<stop stop-color="#BB0841" stop-opacity="0.25"/>
<stop offset="1" stop-color="#BB0841" stop-opacity="0"/>
</linearGradient>
<linearGradient id="paint2_linear_334_2" x1="2340.6" y1="0" x2="2340.6" y2="405.5" gradientUnits="userSpaceOnUse">
<stop stop-color="#BB0841" stop-opacity="0.35"/>
<stop offset="1" stop-color="#BB0841" stop-opacity="0"/>
</linearGradient>
<clipPath id="clip0_334_2">
<rect width="2360" height="400" fill="white"/>
</clipPath>
</defs>
</svg>
