<svg width="72" height="90" viewBox="0 0 72 90" fill="none" xmlns="http://www.w3.org/2000/svg">
<g filter="url(#filter0_d_557_60)">
<path d="M64 33.7802C64 46.426 46.9375 68.9396 39.4562 78.2286C37.6625 80.4423 34.3375 80.4423 32.5437 78.2286C24.9312 68.9396 8 46.426 8 33.7802C8 18.4374 20.5358 6 36 6C51.4583 6 64 18.4374 64 33.7802Z" fill="white"/>
<path d="M34.0977 76.9695L34.0907 76.9609C30.315 72.3537 24.2384 64.478 19.1175 56.2101C16.5567 52.0756 14.2586 47.8811 12.6065 43.9749C10.9403 40.0356 10 36.5478 10 33.7802C10 19.5568 21.6255 8 36 8C50.3689 8 62 19.5571 62 33.7802C62 36.5449 61.0532 40.031 59.3768 43.9709C57.7146 47.8773 55.4044 52.0722 52.8348 56.2077C47.6975 64.4758 41.6206 72.3526 37.9007 76.9715C36.907 78.1954 35.0904 78.1947 34.0977 76.9695Z" stroke="#BB0841" stroke-width="4"/>
</g>
<path d="M35.3 34.4493C35.3 29.6013 33.044 26.8893 28.964 26.8893C24.932 26.8893 22.58 29.6013 22.58 34.4493V37.1373C22.58 41.9853 24.932 44.7213 29.036 44.7213C33.188 44.7213 35.3 42.0333 35.3 37.1373V34.4493ZM32.204 37.1613C32.204 41.1693 30.716 41.8173 29.036 41.8173C27.452 41.8173 25.676 41.1453 25.676 37.1613V34.4253C25.676 30.4893 27.38 29.7933 28.964 29.7933C30.644 29.7933 32.204 30.4653 32.204 34.4253V37.1613ZM46.5348 38.9373C46.5348 40.6653 45.5508 41.9373 43.4388 41.9373C41.8308 41.9373 40.4388 41.6733 38.8068 40.3773L37.3188 42.8013C39.0468 44.2173 40.9668 44.7213 43.4628 44.7213C47.8068 44.7213 49.6308 41.7213 49.6308 38.9613V38.6013C49.6308 35.8173 47.8068 33.3213 44.4708 33.3213C43.0308 33.3213 42.0468 33.7293 41.2548 34.2093L41.4468 29.6973H48.5028V27.1533H38.6868L38.1348 37.1613H40.1988C40.9668 36.4173 42.0228 35.7933 43.4868 35.7933C45.4068 35.7933 46.5348 36.8253 46.5348 38.6733V38.9373Z" fill="#BB0841"/>
<defs>
<filter id="filter0_d_557_60" x="0" y="0" width="72" height="89.8889" filterUnits="userSpaceOnUse" color-interpolation-filters="sRGB">
<feFlood flood-opacity="0" result="BackgroundImageFix"/>
<feColorMatrix in="SourceAlpha" type="matrix" values="0 0 0 0 0 0 0 0 0 0 0 0 0 0 0 0 0 0 127 0" result="hardAlpha"/>
<feOffset dy="2"/>
<feGaussianBlur stdDeviation="4"/>
<feComposite in2="hardAlpha" operator="out"/>
<feColorMatrix type="matrix" values="0 0 0 0 0.733333 0 0 0 0 0.0313726 0 0 0 0 0.254902 0 0 0 0.25 0"/>
<feBlend mode="normal" in2="BackgroundImageFix" result="effect1_dropShadow_557_60"/>
<feBlend mode="normal" in="SourceGraphic" in2="effect1_dropShadow_557_60" result="shape"/>
</filter>
</defs>
</svg>
