<svg width="72" height="90" viewBox="0 0 72 90" fill="none" xmlns="http://www.w3.org/2000/svg">
<g filter="url(#filter0_d_557_45)">
<path d="M64 33.8358C64 46.4816 46.9375 68.9951 39.4562 78.2841C37.6625 80.4979 34.3375 80.4979 32.5437 78.2841C24.9312 68.9951 8 46.4816 8 33.8358C8 18.493 20.5358 6.05554 36 6.05554C51.4583 6.05554 64 18.493 64 33.8358Z" fill="white"/>
<path d="M34.0977 77.025L34.0907 77.0164C30.315 72.4092 24.2384 64.5335 19.1175 56.2656C16.5567 52.1312 14.2586 47.9367 12.6065 44.0304C10.9403 40.0912 10 36.6033 10 33.8358C10 19.6124 21.6255 8.05554 36 8.05554C50.3689 8.05554 62 19.6126 62 33.8358C62 36.6005 61.0532 40.0866 59.3768 44.0264C57.7146 47.9329 55.4044 52.1277 52.8348 56.2632C47.6975 64.5313 41.6206 72.4081 37.9007 77.0271C36.907 78.2509 35.0904 78.2502 34.0977 77.025Z" stroke="#BB0841" stroke-width="4"/>
</g>
<path d="M35.3 34.5049C35.3 29.6569 33.044 26.9449 28.964 26.9449C24.932 26.9449 22.58 29.6569 22.58 34.5049V37.1929C22.58 42.0409 24.932 44.7769 29.036 44.7769C33.188 44.7769 35.3 42.0889 35.3 37.1929V34.5049ZM32.204 37.2169C32.204 41.2249 30.716 41.8729 29.036 41.8729C27.452 41.8729 25.676 41.2009 25.676 37.2169V34.4809C25.676 30.5449 27.38 29.8489 28.964 29.8489C30.644 29.8489 32.204 30.5209 32.204 34.4809V37.2169ZM37.1268 42.2089V44.5129H49.3668V41.9689H41.1348L46.2228 36.8329C47.8308 35.2249 48.7188 33.4969 48.7188 31.6249V31.3849C48.7188 29.0089 47.0388 26.9449 43.1268 26.9449C39.6228 26.9449 38.0148 29.1049 37.1988 30.5929L39.5028 32.1049C40.6308 30.0889 41.9028 29.6809 43.1508 29.6809C44.9268 29.6809 45.6228 30.5689 45.6228 31.5049V31.6969C45.6228 32.6809 45.5028 33.5929 43.4868 35.6569L37.1268 42.2089Z" fill="#BB0841"/>
<defs>
<filter id="filter0_d_557_45" x="0" y="0.055542" width="72" height="89.8889" filterUnits="userSpaceOnUse" color-interpolation-filters="sRGB">
<feFlood flood-opacity="0" result="BackgroundImageFix"/>
<feColorMatrix in="SourceAlpha" type="matrix" values="0 0 0 0 0 0 0 0 0 0 0 0 0 0 0 0 0 0 127 0" result="hardAlpha"/>
<feOffset dy="2"/>
<feGaussianBlur stdDeviation="4"/>
<feComposite in2="hardAlpha" operator="out"/>
<feColorMatrix type="matrix" values="0 0 0 0 0.733333 0 0 0 0 0.0313726 0 0 0 0 0.254902 0 0 0 0.25 0"/>
<feBlend mode="normal" in2="BackgroundImageFix" result="effect1_dropShadow_557_45"/>
<feBlend mode="normal" in="SourceGraphic" in2="effect1_dropShadow_557_45" result="shape"/>
</filter>
</defs>
</svg>
