<svg width="72" height="91" viewBox="0 0 72 91" fill="none" xmlns="http://www.w3.org/2000/svg">
<g filter="url(#filter0_d_582_16)">
<path d="M64 34.3358C64 46.9816 46.9375 69.4951 39.4562 78.7841C37.6625 80.9979 34.3375 80.9979 32.5437 78.7841C24.9312 69.4951 8 46.9816 8 34.3358C8 18.993 20.5358 6.55556 36 6.55556C51.4583 6.55556 64 18.993 64 34.3358Z" fill="white"/>
<path d="M34.0977 77.525L34.0907 77.5164C30.315 72.9092 24.2384 65.0335 19.1175 56.7656C16.5567 52.6312 14.2586 48.4367 12.6065 44.5304C10.9403 40.5912 10 37.1033 10 34.3358C10 20.1124 21.6255 8.55556 36 8.55556C50.3689 8.55556 62 20.1127 62 34.3358C62 37.1005 61.0532 40.5866 59.3768 44.5265C57.7146 48.4329 55.4044 52.6277 52.8348 56.7632C47.6975 65.0314 41.6206 72.9081 37.9007 77.5271C36.907 78.7509 35.0904 78.7502 34.0977 77.525Z" stroke="#BB0841" stroke-width="4"/>
</g>
<path d="M35.3 35.0049C35.3 30.1569 33.044 27.4449 28.964 27.4449C24.932 27.4449 22.58 30.1569 22.58 35.0049V37.6929C22.58 42.5409 24.932 45.2769 29.036 45.2769C33.188 45.2769 35.3 42.5889 35.3 37.6929V35.0049ZM32.204 37.7169C32.204 41.7249 30.716 42.3729 29.036 42.3729C27.452 42.3729 25.676 41.7009 25.676 37.7169V34.9809C25.676 31.0449 27.38 30.3489 28.964 30.3489C30.644 30.3489 32.204 31.0209 32.204 34.9809V37.7169ZM39.5748 31.5729C40.3428 30.7329 41.1588 30.1329 42.6228 30.1329C44.0628 30.1329 44.9748 30.7089 44.9748 32.0049V32.1969C44.9748 33.6849 44.4948 34.6929 42.3348 34.6929H40.2708V37.3329H42.5988C44.8068 37.3329 45.7428 38.1009 45.7428 39.7809V40.0929C45.7428 41.6049 44.7348 42.5409 42.5748 42.5409C41.1828 42.5409 40.1988 42.1809 38.5188 40.9569L37.0068 43.3569C38.6388 44.6529 40.5348 45.2769 42.5508 45.2769C46.7988 45.2769 48.8388 42.8529 48.8388 40.2369V39.8769C48.8388 37.9089 47.7588 36.3729 45.4788 35.9649C47.4468 35.2209 47.9748 33.3729 47.9748 32.0049V31.7649C47.9748 29.1729 45.8628 27.4449 42.6228 27.4449C40.1268 27.4449 38.6388 28.4529 37.4868 29.9409L39.5748 31.5729Z" fill="#BB0841"/>
<defs>
<filter id="filter0_d_582_16" x="0" y="0.555557" width="72" height="89.8889" filterUnits="userSpaceOnUse" color-interpolation-filters="sRGB">
<feFlood flood-opacity="0" result="BackgroundImageFix"/>
<feColorMatrix in="SourceAlpha" type="matrix" values="0 0 0 0 0 0 0 0 0 0 0 0 0 0 0 0 0 0 127 0" result="hardAlpha"/>
<feOffset dy="2"/>
<feGaussianBlur stdDeviation="4"/>
<feComposite in2="hardAlpha" operator="out"/>
<feColorMatrix type="matrix" values="0 0 0 0 0.733333 0 0 0 0 0.0313726 0 0 0 0 0.254902 0 0 0 0.25 0"/>
<feBlend mode="normal" in2="BackgroundImageFix" result="effect1_dropShadow_582_16"/>
<feBlend mode="normal" in="SourceGraphic" in2="effect1_dropShadow_582_16" result="shape"/>
</filter>
</defs>
</svg>
