<svg width="88" height="88" viewBox="0 0 88 88" fill="none" xmlns="http://www.w3.org/2000/svg">
<path d="M47.2396 9.28397C45.9709 6.88597 42.0256 6.88597 40.7569 9.28397L7.75689 71.6173C7.45983 72.176 7.31256 72.8021 7.32943 73.4346C7.3463 74.0672 7.52673 74.6845 7.85315 75.2266C8.17957 75.7687 8.64084 76.2169 9.19201 76.5277C9.74319 76.8385 10.3655 77.0012 10.9982 77H76.9982C77.6305 77.0013 78.2524 76.8387 78.8032 76.5281C79.354 76.2175 79.8149 75.7695 80.141 75.2278C80.4671 74.686 80.6472 74.069 80.6639 73.4369C80.6805 72.8048 80.533 72.1791 80.2359 71.621L47.2396 9.28397ZM47.6649 66H40.3316V58.6666H47.6649V66ZM40.3316 51.3333V33H47.6649L47.6686 51.3333H40.3316Z" fill="#BBB9BA"/>
</svg>
