<svg width="56" height="56" viewBox="0 0 56 56" fill="none" xmlns="http://www.w3.org/2000/svg">
<path fill-rule="evenodd" clip-rule="evenodd" d="M32.284 50.5645C32.698 50.3566 33.0127 49.9929 33.159 49.5533C33.3053 49.1137 33.2713 48.6341 33.0645 48.2195L22.96 28L33.068 7.784C33.1731 7.57833 33.2364 7.3539 33.2543 7.12364C33.2722 6.89338 33.2444 6.66185 33.1724 6.44241C33.1004 6.22296 32.9857 6.01993 32.8349 5.84503C32.684 5.67012 32.5001 5.52681 32.2936 5.42334C32.0871 5.31987 31.8622 5.25829 31.6318 5.24216C31.4014 5.22603 31.1701 5.25566 30.9512 5.32935C30.7324 5.40303 30.5302 5.51931 30.3565 5.67149C30.1828 5.82367 30.0409 6.00873 29.939 6.216L19.439 27.216C19.3171 27.4594 19.2536 27.7278 19.2536 28C19.2536 28.2722 19.3171 28.5406 19.439 28.784L29.939 49.784C30.147 50.198 30.5106 50.5127 30.9502 50.659C31.3898 50.8053 31.8694 50.7713 32.284 50.5645Z" fill="#888888"/>
</svg>
