<svg width="48" height="49" viewBox="0 0 48 49" fill="none" xmlns="http://www.w3.org/2000/svg">
<path d="M48 4.58516C48 4.15452 47.8397 3.77357 47.519 3.4423L45.1142 0.957831C44.7936 0.626568 44.4248 0.460937 44.008 0.460937C43.5912 0.460937 43.2224 0.626568 42.9018 0.957831L24 20.4858L5.0982 0.957831C4.77755 0.626568 4.40882 0.460937 3.99198 0.460937C3.57515 0.460937 3.20641 0.626568 2.88577 0.957831L0.480962 3.4423C0.160321 3.77357 0 4.15452 0 4.58516C0 5.0158 0.160321 5.39675 0.480962 5.72802L22.8938 28.8833C23.2144 29.2146 23.5832 29.3802 24 29.3802C24.4168 29.3802 24.7856 29.2146 25.1062 28.8833L47.519 5.72802C47.8397 5.39675 48 5.0158 48 4.58516ZM48 23.6659C48 23.2353 47.8397 22.8543 47.519 22.523L45.1142 20.0386C44.7936 19.7073 44.4248 19.5417 44.008 19.5417C43.5912 19.5417 43.2224 19.7073 42.9018 20.0386L24 39.5665L5.0982 20.0386C4.77755 19.7073 4.40882 19.5417 3.99198 19.5417C3.57515 19.5417 3.20641 19.7073 2.88577 20.0386L0.480962 22.523C0.160321 22.8543 0 23.2353 0 23.6659C0 24.0965 0.160321 24.4775 0.480962 24.8088L22.8938 47.964C23.2144 48.2953 23.5832 48.4609 24 48.4609C24.4168 48.4609 24.7856 48.2953 25.1062 47.964L47.519 24.8088C47.8397 24.4775 48 24.0965 48 23.6659Z" fill="white"/>
</svg>
