<svg width="56" height="56" viewBox="0 0 56 56" fill="none" xmlns="http://www.w3.org/2000/svg">
<path fill-rule="evenodd" clip-rule="evenodd" d="M23.7161 50.5645C23.302 50.3566 22.9874 49.9929 22.8411 49.5533C22.6948 49.1137 22.7287 48.6341 22.9356 48.2195L33.04 28L22.932 7.784C22.827 7.57833 22.7637 7.3539 22.7458 7.12364C22.7278 6.89338 22.7557 6.66185 22.8277 6.44241C22.8996 6.22296 23.0144 6.01993 23.1652 5.84503C23.316 5.67012 23.5 5.52681 23.7065 5.42334C23.9129 5.31987 24.1378 5.25829 24.3682 5.24216C24.5986 5.22603 24.8299 5.25566 25.0488 5.32935C25.2677 5.40303 25.4698 5.51931 25.6436 5.67149C25.8173 5.82367 25.9592 6.00873 26.061 6.216L36.5611 27.216C36.683 27.4594 36.7465 27.7278 36.7465 28C36.7465 28.2722 36.683 28.5406 36.5611 28.784L26.0611 49.784C25.8531 50.198 25.4895 50.5127 25.0499 50.659C24.6103 50.8053 24.1306 50.7713 23.7161 50.5645Z" fill="#888888"/>
</svg>
