<svg width="80" height="80" viewBox="0 0 80 80" fill="none" xmlns="http://www.w3.org/2000/svg">
<path d="M56.67 10.32L57.055 11.085L59.935 18.75C60.16 19.35 60.635 19.83 61.24 20.055L68.64 22.835C71.89 24.05 73.635 27.52 72.77 30.805L72.56 31.455L69.12 39.07C68.9876 39.3604 68.9191 39.6758 68.9191 39.995C68.9191 40.3142 68.9876 40.6296 69.12 40.92L72.39 48.12C73.0742 49.6292 73.1748 51.3384 72.6724 52.9175C72.1701 54.4966 71.1004 55.8335 69.67 56.67L68.905 57.055L61.24 59.935C60.943 60.0477 60.6735 60.2223 60.4493 60.4473C60.2251 60.6724 60.0515 60.9426 59.94 61.24L57.16 68.64C56.5779 70.1936 55.4402 71.4761 53.9669 72.239C52.4936 73.002 50.7897 73.1912 49.185 72.77L48.535 72.56L40.92 69.12C40.6296 68.9876 40.3141 68.9191 39.995 68.9191C39.6758 68.9191 39.3604 68.9876 39.07 69.12L31.875 72.39C30.3658 73.0742 28.6565 73.1748 27.0775 72.6725C25.4984 72.1701 24.1615 71.1004 23.325 69.67L22.94 68.905L20.055 61.24C19.9423 60.943 19.7677 60.6735 19.5426 60.4493C19.3176 60.2251 19.0474 60.0515 18.75 59.94L11.35 57.16C9.79634 56.578 8.51391 55.4402 7.75096 53.9669C6.98801 52.4937 6.79881 50.7897 7.21998 49.185L7.42998 48.535L10.875 40.92C11.007 40.6295 11.0754 40.3141 11.0754 39.995C11.0754 39.6759 11.007 39.3605 10.875 39.07L7.59998 31.875C6.91537 30.3664 6.81398 28.6576 7.31538 27.0786C7.81679 25.4996 8.88543 24.1623 10.315 23.325L11.08 22.94L18.75 20.05C19.0479 19.9379 19.3184 19.7635 19.5435 19.5385C19.7685 19.3134 19.9429 19.0429 20.055 18.745L22.835 11.345C23.417 9.79244 24.5539 8.51082 26.0261 7.74797C27.4982 6.98511 29.2009 6.79522 30.805 7.215L31.455 7.425L39.07 10.87C39.3605 11.0021 39.6759 11.0704 39.995 11.0704C40.3141 11.0704 40.6295 11.0021 40.92 10.87L48.12 7.6C49.6286 6.91539 51.3374 6.814 52.9164 7.31541C54.4954 7.81681 55.8327 8.88545 56.67 10.315V10.32ZM27.015 12.92L24.24 20.32C23.9041 21.2153 23.3806 22.0283 22.7044 22.7044C22.0283 23.3806 21.2153 23.9042 20.32 24.24L12.92 27.015L12.43 27.27C12.0003 27.5684 11.689 28.008 11.5501 28.5124C11.4112 29.0167 11.4536 29.5537 11.67 30.03L14.94 37.225C15.74 38.985 15.74 41.005 14.94 42.765L11.64 50.035L11.505 50.49C11.4132 51.0043 11.5045 51.5345 11.763 51.9884C12.0215 52.4424 12.4309 52.7915 12.92 52.975L20.32 55.755C22.13 56.435 23.56 57.86 24.24 59.675L27.015 67.075L27.27 67.565C27.87 68.435 29.03 68.775 30.03 68.32L37.225 65.055C38.095 64.66 39.0395 64.4556 39.995 64.4556C40.9505 64.4556 41.895 64.66 42.765 65.055L50.035 68.355L50.49 68.485C51.0036 68.5771 51.5333 68.4865 51.9872 68.2289C52.4411 67.9714 52.7905 67.5632 52.975 67.075L55.755 59.675C56.0908 58.7797 56.6144 57.9667 57.2905 57.2906C57.9667 56.6144 58.7797 56.0908 59.675 55.755L67.075 52.975L67.565 52.725C67.9938 52.4259 68.3041 51.9859 68.4421 51.4817C68.58 50.9774 68.5368 50.4407 68.32 49.965L65.055 42.765C64.6599 41.895 64.4556 40.9505 64.4556 39.995C64.4556 39.0395 64.6599 38.095 65.055 37.225L68.355 29.96L68.485 29.5C68.577 28.9863 68.4864 28.4566 68.2289 28.0028C67.9714 27.5489 67.5631 27.1994 67.075 27.015L59.675 24.24C58.7797 23.9042 57.9667 23.3806 57.2905 22.7044C56.6144 22.0283 56.0908 21.2153 55.755 20.32L52.975 12.92L52.725 12.43C52.4266 12.0004 51.987 11.689 51.4826 11.5501C50.9783 11.4112 50.4412 11.4537 49.965 11.67L42.765 14.94C41.895 15.335 40.9505 15.5394 39.995 15.5394C39.0395 15.5394 38.095 15.335 37.225 14.94L30.025 11.67L29.89 11.61C29.335 11.4027 28.7204 11.4243 28.1813 11.6699C27.6422 11.9156 27.2227 12.3652 27.015 12.92ZM34.885 46.73L50.815 28.53C51.1804 28.1179 51.6851 27.8553 52.2323 27.7925C52.7794 27.7297 53.3305 27.8711 53.7798 28.1896C54.2291 28.5082 54.545 28.9814 54.6668 29.5185C54.7886 30.0556 54.7079 30.6188 54.44 31.1L54.175 31.465L36.675 51.465C36.3224 51.8684 35.8366 52.1317 35.3062 52.2069C34.7757 52.2822 34.2359 52.1644 33.785 51.875L33.415 51.575L25.915 44.075C25.5256 43.6831 25.2951 43.1609 25.2681 42.6091C25.241 42.0573 25.4193 41.5151 25.7685 41.087C26.1176 40.6589 26.613 40.3753 27.159 40.2909C27.705 40.2065 28.2628 40.3273 28.725 40.63L29.075 40.915L34.885 46.73L50.815 28.53L34.885 46.73Z" fill="#BB0841"/>
</svg>
