<svg width="871" height="494" viewBox="0 0 871 494" fill="none" xmlns="http://www.w3.org/2000/svg">
<path d="M800.794 359.624H633.877C630.389 359.624 627.032 358.242 624.575 355.764L572.293 303.509C567.708 298.926 567.115 291.646 570.999 286.427C593.092 256.692 605.992 219.765 605.51 179.79C604.347 85.9149 528.085 8.79319 434.162 6.60036C335.346 4.34175 254.499 83.744 254.499 182.005C254.499 221.147 267.355 257.284 289.032 286.471C292.893 291.69 292.323 298.948 287.715 303.531L235.433 355.786C232.954 358.264 229.619 359.645 226.131 359.645H70.2066C35.0594 359.645 6.58191 388.108 6.58191 423.237C6.58191 458.849 35.586 487.685 71.2158 487.443C130.979 487.071 219.242 486.917 278.676 486.851C313.801 486.808 342.257 458.323 342.257 423.216C342.257 396.726 326.066 374.052 303.029 364.492C297.193 362.08 295.548 354.624 300.023 350.172L321.327 328.88C324.289 325.92 328.94 325.481 332.428 327.828C360.335 346.51 393.903 357.431 430.015 357.431C466.128 357.431 499.695 346.51 527.602 327.806C531.091 325.459 535.742 325.898 538.704 328.858L563.561 353.703C567.664 357.804 566.764 364.733 561.696 367.518C542.038 378.35 528.743 399.226 528.743 423.216C528.743 458.345 557.221 486.807 592.368 486.807H800.794C835.941 486.807 864.418 458.345 864.418 423.216C864.418 388.086 835.941 359.624 800.794 359.624Z" stroke="white" stroke-width="6" stroke-miterlimit="10"/>
<circle cx="430" cy="184" r="144" fill="url(#paint0_linear_411_12)"/>
<path d="M135.04 410.2H130.44L119.72 439.04H124.96L127.8 431.12H137.52L140.32 439.04H145.88L135.04 410.2ZM131.24 420.96C131.96 418.92 132.2 418.12 132.64 416.52C133.04 417.92 133.4 419.04 134.08 420.96L136.04 426.84H129.28L131.24 420.96ZM151.339 439.04H156.299L162.379 416.84L168.219 439.04H173.099L181.059 410.2H176.139L170.659 431.56L164.859 410.2H159.939L154.099 431.6L148.819 410.2H143.499L151.339 439.04ZM193.866 434.88C190.426 434.88 187.546 433.56 185.786 432.08L183.306 436.16C185.546 438 189.466 439.48 193.626 439.48C199.226 439.48 204.226 437.48 204.226 431.04V430.52C204.226 426.56 201.946 423.76 195.146 422.24C191.746 421.48 188.906 421.08 188.906 418.28V417.8C188.906 416.24 190.586 414.32 194.226 414.32C196.546 414.32 198.426 414.6 200.746 416.12L203.146 412.16C200.226 410.28 197.306 409.76 194.146 409.76C186.346 409.76 183.826 414.4 183.826 417.88V418.4C183.826 425.08 189.226 425.92 194.026 426.96C197.306 427.68 199.106 428.68 199.106 431V431.44C199.106 433.4 197.506 434.88 193.866 434.88Z" fill="white"/>
<path d="M630.47 390.2V419.04H648.75V414.72H635.59V390.2H630.47ZM662.953 389.76C655.553 389.76 650.153 393.56 650.153 402.2V407.36C650.153 415.96 655.713 419.48 663.033 419.48C666.473 419.48 670.513 418.56 673.073 416.84V402.8H661.953V407.08H667.993V414C666.553 414.56 665.153 414.84 663.273 414.84C658.593 414.84 655.273 412.6 655.273 406.32V403.36C655.273 396.04 658.513 394.4 662.953 394.4C665.353 394.4 667.913 395.04 670.033 396.92L672.793 393C669.833 390.6 666.353 389.76 662.953 389.76ZM698.015 389.76C691.335 389.76 685.975 393.56 685.975 402.2V407.36C685.975 415.96 691.495 419.48 697.775 419.48C700.975 419.48 705.175 419 708.615 415.64L705.895 411.72C703.615 414.08 700.655 414.72 697.975 414.72C694.375 414.72 691.135 412.44 691.135 406.32V403.36C691.135 396.2 694.575 394.48 698.015 394.48C700.615 394.48 702.815 394.88 705.175 396.88L707.935 392.96C705.015 390.6 702.095 389.76 698.015 389.76ZM712.543 419.04H717.343V397.08C717.703 398.72 718.423 400.24 719.143 401.52L729.023 419.04H734.903V390.2H730.103V412.24C729.663 410.36 728.863 408.76 728.263 407.68L718.423 390.2H712.543V419.04ZM749.891 414.88C746.451 414.88 743.571 413.56 741.811 412.08L739.331 416.16C741.571 418 745.491 419.48 749.651 419.48C755.251 419.48 760.251 417.48 760.251 411.04V410.52C760.251 406.56 757.971 403.76 751.171 402.24C747.771 401.48 744.931 401.08 744.931 398.28V397.8C744.931 396.24 746.611 394.32 750.251 394.32C752.571 394.32 754.451 394.6 756.771 396.12L759.171 392.16C756.251 390.28 753.331 389.76 750.171 389.76C742.371 389.76 739.851 394.4 739.851 397.88V398.4C739.851 405.08 745.251 405.92 750.051 406.96C753.331 407.68 755.131 408.68 755.131 411V411.44C755.131 413.4 753.531 414.88 749.891 414.88ZM566.288 430.2V459.04H584.568V454.72H571.408V430.2H566.288ZM593.912 459.36C596.232 459.36 599.352 458.28 600.192 456.32L600.272 459.04H604.792V443.56C604.792 439.12 601.072 436.52 595.912 436.52C592.152 436.52 589.392 437.92 587.152 439.48L589.632 443.16C591.472 441.72 593.512 440.96 595.872 440.96C598.592 440.96 599.792 442.08 599.792 444.8V445.64H594.752C588.552 445.64 586.432 448.32 586.432 451.92V453.2C586.432 457.08 589.192 459.36 593.912 459.36ZM599.792 450.16C599.792 451.8 599.792 452.76 598.872 453.64C597.832 454.68 596.432 455.12 594.312 455.12C592.352 455.12 591.312 454.28 591.312 452.84V452.36C591.312 450.64 592.232 449.56 594.872 449.56H599.792V450.16ZM617.122 459.4C619.522 459.4 622.282 458.48 623.522 456.4H623.602V459.04H628.402V437H623.362V449.84C623.362 453.8 620.682 455 618.682 455C616.322 455 614.522 454 614.522 450.16V437H609.482V451.24C609.482 456.6 612.522 459.4 617.122 459.4ZM644.969 436.52C642.369 436.52 640.009 437.32 638.449 439.52H638.369V437H633.609V459.04H638.649V446C638.649 441.64 641.769 440.92 643.409 440.92C646.249 440.92 647.609 442.48 647.609 445.76V459.04H652.649V444.68C652.649 438.76 648.929 436.52 644.969 436.52ZM666.452 436.52C660.292 436.52 656.492 440.2 656.492 446.48V449.24C656.492 455.52 660.012 459.36 666.492 459.36C670.492 459.36 673.452 458.08 674.932 456.72L672.532 453.04C670.972 454.2 669.292 454.92 666.532 454.92C664.332 454.92 661.572 453.64 661.572 449.16V446.48C661.572 442.4 663.932 440.92 666.452 440.92C668.532 440.92 670.252 441.36 672.052 442.8L674.492 439.12C672.772 437.8 670.612 436.52 666.452 436.52ZM689.306 436.52C686.706 436.52 684.346 437.32 682.786 439.52H682.706V428.8H677.946V459.04H682.986V446C682.986 441.64 686.106 440.92 687.746 440.92C690.586 440.92 691.946 442.48 691.946 445.76V459.04H696.986V444.68C696.986 438.76 693.266 436.52 689.306 436.52ZM722.43 429.76C715.75 429.76 710.39 433.56 710.39 442.2V447.36C710.39 455.96 715.91 459.48 722.19 459.48C725.39 459.48 729.59 459 733.03 455.64L730.31 451.72C728.03 454.08 725.07 454.72 722.39 454.72C718.79 454.72 715.55 452.44 715.55 446.32V443.36C715.55 436.2 718.99 434.48 722.43 434.48C725.03 434.48 727.23 434.88 729.59 436.88L732.35 432.96C729.43 430.6 726.51 429.76 722.43 429.76ZM740.087 446.04V445.2C740.087 442.72 741.767 440.68 745.127 440.68C748.647 440.68 750.007 442.72 750.007 445.08V446.04H740.087ZM752.207 453.36C750.007 454.64 748.127 455.16 745.527 455.16C742.007 455.16 740.087 453.36 740.087 449.84H754.847V446.2C754.847 439.76 750.807 436.52 745.207 436.52C739.607 436.52 735.167 439.64 735.167 446.8V449.08C735.167 456.96 740.167 459.36 745.247 459.36C749.367 459.36 752.167 458.44 754.287 457L752.207 453.36ZM770.169 436.52C767.569 436.52 765.209 437.32 763.649 439.52H763.569V437H758.809V459.04H763.849V446C763.849 441.64 766.969 440.92 768.609 440.92C771.449 440.92 772.809 442.48 772.809 445.76V459.04H777.849V444.68C777.849 438.76 774.129 436.52 770.169 436.52ZM784.252 452.8C784.252 456.92 785.812 459.36 790.852 459.36C792.812 459.36 794.452 458.84 795.372 458.44L794.572 454.4C793.412 454.88 792.452 455.04 791.452 455.04C790.132 455.04 789.292 454.64 789.292 452.76V441.16H794.852V437H789.292V431.36H784.252V437H780.732V441.16H784.252V452.8ZM802.336 446.04V445.2C802.336 442.72 804.016 440.68 807.376 440.68C810.896 440.68 812.256 442.72 812.256 445.08V446.04H802.336ZM814.456 453.36C812.256 454.64 810.376 455.16 807.776 455.16C804.256 455.16 802.336 453.36 802.336 449.84H817.096V446.2C817.096 439.76 813.056 436.52 807.456 436.52C801.856 436.52 797.416 439.64 797.416 446.8V449.08C797.416 456.96 802.416 459.36 807.496 459.36C811.616 459.36 814.416 458.44 816.536 457L814.456 453.36ZM835.257 436.96C834.457 436.68 833.257 436.52 832.137 436.52C829.017 436.52 827.137 438 825.977 440.2H825.897V437H821.057V459.04H826.097V445.96C826.097 443.12 828.217 441.04 831.017 441.04C832.297 441.04 833.057 441.2 833.817 441.52L835.257 436.96Z" fill="white"/>
<path d="M354.145 125.76C347.465 125.76 342.105 129.56 342.105 138.2V143.36C342.105 151.96 347.625 155.48 353.905 155.48C357.105 155.48 361.305 155 364.745 151.64L362.025 147.72C359.745 150.08 356.785 150.72 354.105 150.72C350.505 150.72 347.265 148.44 347.265 142.32V139.36C347.265 132.2 350.705 130.48 354.145 130.48C356.745 130.48 358.945 130.88 361.305 132.88L364.065 128.96C361.145 126.6 358.225 125.76 354.145 125.76ZM375.073 155.4C377.473 155.4 380.233 154.48 381.473 152.4H381.553V155.04H386.353V133H381.313V145.84C381.313 149.8 378.633 151 376.633 151C374.273 151 372.473 150 372.473 146.16V133H367.433V147.24C367.433 152.6 370.473 155.4 375.073 155.4ZM398.039 151.08C395.279 151.08 393.079 150.12 391.119 148.8L388.879 152.64C390.999 154.36 394.479 155.36 398.159 155.36C403.759 155.36 406.919 152.4 406.919 148.96V148.52C406.919 143.8 404.439 142.56 398.839 141.44C395.439 140.76 394.759 140.52 394.759 138.96V138.72C394.759 137.56 395.759 136.76 398.879 136.76C400.799 136.76 402.719 137.16 404.199 138.16L406.359 134.52C403.799 132.8 400.759 132.52 398.239 132.52C392.079 132.52 389.719 135.68 389.719 138.68V139.08C389.719 143.24 391.839 144.92 397.199 145.96C401.319 146.76 401.799 147.12 401.799 148.64V148.88C401.799 150.56 400.319 151.08 398.039 151.08ZM411.067 148.8C411.067 152.92 412.627 155.36 417.667 155.36C419.627 155.36 421.267 154.84 422.187 154.44L421.387 150.4C420.227 150.88 419.267 151.04 418.267 151.04C416.947 151.04 416.107 150.64 416.107 148.76V137.16H421.667V133H416.107V127.36H411.067V133H407.547V137.16H411.067V148.8ZM433.751 150.96C430.751 150.96 428.511 149.36 428.511 145.16V142.72C428.511 138.52 430.591 136.92 433.751 136.92C436.911 136.92 438.991 138.52 438.991 142.72V145.16C438.991 149.36 436.751 150.96 433.751 150.96ZM433.751 155.36C439.991 155.36 444.071 151.68 444.071 145.24V142.64C444.071 136.16 439.991 132.52 433.751 132.52C427.511 132.52 423.431 136.16 423.431 142.64V145.24C423.431 151.68 427.511 155.36 433.751 155.36ZM470.927 132.52C467.607 132.52 465.647 133.68 464.087 135.88C463.287 133.88 460.927 132.52 458.207 132.52C455.367 132.52 453.247 133.8 452.167 135.8H452.087V133H447.327V155.04H452.367V141.52C452.367 138.48 454.047 137 456.407 137C458.647 137 460.407 138.08 460.407 141.8V155.04H465.447V141.72C465.447 138.04 467.527 137 469.487 137C471.607 137 473.487 137.92 473.487 141.88V155.04H478.527V140.84C478.527 135.32 475.007 132.52 470.927 132.52ZM486.479 142.04V141.2C486.479 138.72 488.159 136.68 491.519 136.68C495.039 136.68 496.399 138.72 496.399 141.08V142.04H486.479ZM498.599 149.36C496.399 150.64 494.519 151.16 491.919 151.16C488.399 151.16 486.479 149.36 486.479 145.84H501.239V142.2C501.239 135.76 497.199 132.52 491.599 132.52C485.999 132.52 481.559 135.64 481.559 142.8V145.08C481.559 152.96 486.559 155.36 491.639 155.36C495.759 155.36 498.559 154.44 500.679 153L498.599 149.36ZM518.6 132.96C517.8 132.68 516.6 132.52 515.48 132.52C512.36 132.52 510.48 134 509.32 136.2H509.24V133H504.4V155.04H509.44V141.96C509.44 139.12 511.56 137.04 514.36 137.04C515.64 137.04 516.4 137.2 517.16 137.52L518.6 132.96ZM390.377 203.04H394.977L405.857 174.2H400.657L392.817 196.76L385.257 174.2H379.777L390.377 203.04ZM412.511 203.36C414.831 203.36 417.951 202.28 418.791 200.32L418.871 203.04H423.391V187.56C423.391 183.12 419.671 180.52 414.511 180.52C410.751 180.52 407.991 181.92 405.751 183.48L408.231 187.16C410.071 185.72 412.111 184.96 414.471 184.96C417.191 184.96 418.391 186.08 418.391 188.8V189.64H413.351C407.151 189.64 405.031 192.32 405.031 195.92V197.2C405.031 201.08 407.791 203.36 412.511 203.36ZM418.391 194.16C418.391 195.8 418.391 196.76 417.471 197.64C416.431 198.68 415.031 199.12 412.911 199.12C410.951 199.12 409.911 198.28 409.911 196.84V196.36C409.911 194.64 410.831 193.56 413.471 193.56H418.391V194.16ZM427.48 203.04H432.52V172.8H427.48V203.04ZM444.375 203.4C446.775 203.4 449.535 202.48 450.775 200.4H450.855V203.04H455.655V181H450.615V193.84C450.615 197.8 447.935 199 445.935 199C443.575 199 441.775 198 441.775 194.16V181H436.735V195.24C436.735 200.6 439.775 203.4 444.375 203.4ZM463.822 190.04V189.2C463.822 186.72 465.502 184.68 468.862 184.68C472.382 184.68 473.742 186.72 473.742 189.08V190.04H463.822ZM475.942 197.36C473.742 198.64 471.862 199.16 469.262 199.16C465.742 199.16 463.822 197.36 463.822 193.84H478.582V190.2C478.582 183.76 474.542 180.52 468.942 180.52C463.342 180.52 458.902 183.64 458.902 190.8V193.08C458.902 200.96 463.902 203.36 468.982 203.36C473.102 203.36 475.902 202.44 478.022 201L475.942 197.36ZM319.431 222.2V251.04H338.271V246.8H324.511V238.36H337.151V234.2H324.511V226.44H337.991V222.2H319.431ZM353.287 228.52C350.687 228.52 348.327 229.32 346.767 231.52H346.687V229H341.927V251.04H346.967V238C346.967 233.64 350.087 232.92 351.727 232.92C354.567 232.92 355.927 234.48 355.927 237.76V251.04H360.967V236.68C360.967 230.76 357.247 228.52 353.287 228.52ZM371.531 251.36C373.851 251.36 376.971 250.28 377.811 248.32L377.891 251.04H382.411V235.56C382.411 231.12 378.691 228.52 373.531 228.52C369.771 228.52 367.011 229.92 364.771 231.48L367.251 235.16C369.091 233.72 371.131 232.96 373.491 232.96C376.211 232.96 377.411 234.08 377.411 236.8V237.64H372.371C366.171 237.64 364.051 240.32 364.051 243.92V245.2C364.051 249.08 366.811 251.36 371.531 251.36ZM377.411 242.16C377.411 243.8 377.411 244.76 376.491 245.64C375.451 246.68 374.051 247.12 371.931 247.12C369.971 247.12 368.931 246.28 368.931 244.84V244.36C368.931 242.64 369.851 241.56 372.491 241.56H377.411V242.16ZM391.421 248.48C392.421 250.16 394.421 251.36 397.341 251.36C402.661 251.36 406.181 247.76 406.181 241.8V237.92C406.181 232.2 403.261 228.52 397.581 228.52C395.821 228.52 392.981 229.08 391.541 231.16V220.8H386.501V251.04H391.301V248.48H391.421ZM401.181 241.24C401.181 244.92 399.621 247.08 396.701 247.08C393.661 247.08 391.461 244.76 391.461 242.72V238.04C391.461 235.04 393.221 232.84 396.581 232.84C399.821 232.84 401.181 235 401.181 238.72V241.24ZM409.432 251.04H414.472V220.8H409.432V251.04ZM422.647 238.04V237.2C422.647 234.72 424.327 232.68 427.687 232.68C431.207 232.68 432.567 234.72 432.567 237.08V238.04H422.647ZM434.767 245.36C432.567 246.64 430.687 247.16 428.087 247.16C424.567 247.16 422.647 245.36 422.647 241.84H437.407V238.2C437.407 231.76 433.367 228.52 427.767 228.52C422.167 228.52 417.727 231.64 417.727 238.8V241.08C417.727 248.96 422.727 251.36 427.807 251.36C431.927 251.36 434.727 250.44 436.847 249L434.767 245.36ZM464.168 228.52C460.848 228.52 458.888 229.68 457.328 231.88C456.528 229.88 454.168 228.52 451.448 228.52C448.608 228.52 446.488 229.8 445.408 231.8H445.328V229H440.568V251.04H445.608V237.52C445.608 234.48 447.288 233 449.648 233C451.888 233 453.648 234.08 453.648 237.8V251.04H458.688V237.72C458.688 234.04 460.768 233 462.728 233C464.848 233 466.728 233.92 466.728 237.88V251.04H471.768V236.84C471.768 231.32 468.248 228.52 464.168 228.52ZM479.72 238.04V237.2C479.72 234.72 481.4 232.68 484.76 232.68C488.28 232.68 489.64 234.72 489.64 237.08V238.04H479.72ZM491.84 245.36C489.64 246.64 487.76 247.16 485.16 247.16C481.64 247.16 479.72 245.36 479.72 241.84H494.48V238.2C494.48 231.76 490.44 228.52 484.84 228.52C479.24 228.52 474.8 231.64 474.8 238.8V241.08C474.8 248.96 479.8 251.36 484.88 251.36C489 251.36 491.8 250.44 493.92 249L491.84 245.36ZM509.001 228.52C506.401 228.52 504.041 229.32 502.481 231.52H502.401V229H497.641V251.04H502.681V238C502.681 233.64 505.801 232.92 507.441 232.92C510.281 232.92 511.641 234.48 511.641 237.76V251.04H516.681V236.68C516.681 230.76 512.961 228.52 509.001 228.52ZM522.285 244.8C522.285 248.92 523.845 251.36 528.885 251.36C530.845 251.36 532.485 250.84 533.405 250.44L532.605 246.4C531.445 246.88 530.485 247.04 529.485 247.04C528.165 247.04 527.325 246.64 527.325 244.76V233.16H532.885V229H527.325V223.36H522.285V229H518.765V233.16H522.285V244.8Z" fill="white"/>
<defs>
<linearGradient id="paint0_linear_411_12" x1="273.5" y1="184" x2="574" y2="184" gradientUnits="userSpaceOnUse">
<stop stop-color="#BB0841" stop-opacity="0.34"/>
<stop offset="1" stop-color="#BB0841"/>
</linearGradient>
</defs>
</svg>
