<svg width="80" height="80" viewBox="0 0 80 80" fill="none" xmlns="http://www.w3.org/2000/svg">
<path d="M20 8C16.8174 8 13.7652 9.26428 11.5147 11.5147C9.26428 13.7652 8 16.8174 8 20V56C8 59.1826 9.26428 62.2348 11.5147 64.4853C13.7652 66.7357 16.8174 68 20 68H23.3L26.844 64H20C17.8783 64 15.8434 63.1571 14.3431 61.6569C12.8429 60.1566 12 58.1217 12 56V20C12 17.8783 12.8429 15.8434 14.3431 14.3431C15.8434 12.8429 17.8783 12 20 12H52C54.1217 12 56.1566 12.8429 57.6569 14.3431C59.1571 15.8434 60 17.8783 60 20V40.132C61.4337 40.3684 62.7988 40.9144 64 41.732V20C64 16.8174 62.7357 13.7652 60.4853 11.5147C58.2348 9.26428 55.1826 8 52 8H20ZM26 44C25.6145 43.9999 25.2371 44.1112 24.9134 44.3206C24.5897 44.5299 24.3334 44.8284 24.1753 45.18C24.0172 45.5316 23.9642 45.9214 24.0225 46.3025C24.0808 46.6836 24.248 47.0397 24.504 47.328L35.764 60L24.504 72.672C24.248 72.9603 24.0808 73.3164 24.0225 73.6975C23.9642 74.0786 24.0172 74.4684 24.1753 74.82C24.3334 75.1716 24.5897 75.4701 24.9134 75.6794C25.2371 75.8888 25.6145 76.0001 26 76H58.38C59.939 75.9999 61.4367 75.3931 62.556 74.308L75.092 62.152C75.3805 61.8723 75.6099 61.5375 75.7665 61.1675C75.9231 60.7975 76.0039 60.3998 76.0039 59.998C76.0039 59.5962 75.9231 59.1985 75.7665 58.8285C75.6099 58.4585 75.3805 58.1237 75.092 57.844L62.556 45.692C61.4367 44.6069 59.939 44.0001 58.38 44H26ZM39.344 58.008L30.452 48H58.38C58.8997 48 59.3989 48.2023 59.772 48.564L71.568 60L59.768 71.436C59.3959 71.7967 58.8983 71.9989 58.38 72H30.452L39.344 61.992C39.8315 61.443 40.1008 60.7342 40.1008 60C40.1008 59.2658 39.8315 58.557 39.344 58.008ZM20 22C20 21.4696 20.2107 20.9609 20.5858 20.5858C20.9609 20.2107 21.4696 20 22 20H50C50.5304 20 51.0391 20.2107 51.4142 20.5858C51.7893 20.9609 52 21.4696 52 22C52 22.5304 51.7893 23.0391 51.4142 23.4142C51.0391 23.7893 50.5304 24 50 24H22C21.4696 24 20.9609 23.7893 20.5858 23.4142C20.2107 23.0391 20 22.5304 20 22ZM22 32C21.4696 32 20.9609 32.2107 20.5858 32.5858C20.2107 32.9609 20 33.4696 20 34C20 34.5304 20.2107 35.0391 20.5858 35.4142C20.9609 35.7893 21.4696 36 22 36H38C38.5304 36 39.0391 35.7893 39.4142 35.4142C39.7893 35.0391 40 34.5304 40 34C40 33.4696 39.7893 32.9609 39.4142 32.5858C39.0391 32.2107 38.5304 32 38 32H22Z" fill="#BB0841"/>
</svg>
