<svg width="80" height="80" viewBox="0 0 80 80" fill="none" xmlns="http://www.w3.org/2000/svg">
<path d="M55 35C51.0444 35 47.1776 36.173 43.8886 38.3706C40.5996 40.5682 38.0362 43.6918 36.5224 47.3463C35.0087 51.0009 34.6126 55.0222 35.3843 58.9018C36.156 62.7814 38.0608 66.3451 40.8579 69.1421C43.6549 71.9392 47.2186 73.844 51.0982 74.6157C54.9778 75.3874 58.9991 74.9913 62.6537 73.4776C66.3082 71.9638 69.4318 69.4004 71.6294 66.1114C73.827 62.8224 75 58.9556 75 55C74.9934 49.6977 72.8841 44.6145 69.1348 40.8652C65.3855 37.1159 60.3023 35.0066 55 35ZM69.775 52.5H64.89C64.5652 48.7306 63.5322 45.0563 61.845 41.67C63.9159 42.7369 65.7104 44.2707 67.0866 46.1502C68.4629 48.0298 69.3832 50.2036 69.775 52.5ZM50.14 52.5C50.5997 47.9819 52.2796 43.674 55 40.0375C57.7215 43.6736 59.4024 47.9816 59.8625 52.5H50.14ZM59.865 57.5C59.4044 62.0187 57.7226 66.3268 55 69.9625C52.2785 66.3264 50.5976 62.0184 50.1375 57.5H59.865ZM48.155 41.67C46.4677 45.0563 45.4346 48.7306 45.11 52.5H40.225C40.6168 50.2036 41.5371 48.0298 42.9134 46.1502C44.2896 44.2707 46.0841 42.7369 48.155 41.67ZM40.225 57.5H45.1075C45.4321 61.2694 46.4652 64.9437 48.1525 68.33C46.0821 67.2628 44.2881 65.7289 42.9123 63.8494C41.5365 61.9698 40.6165 59.7961 40.225 57.5ZM61.845 68.33C63.5325 64.9438 64.5656 61.2695 64.89 57.5H69.775C69.3834 59.7964 68.4631 61.9704 67.0869 63.8499C65.7106 65.7295 63.916 67.2633 61.845 68.33ZM15 35H30V40H15V35ZM15 15H45V20H15V15ZM15 25H45V30H15V25ZM15 60H30V65H15V60Z" fill="#BB0841"/>
<path d="M30 75H10C8.67432 74.9987 7.40332 74.4715 6.46593 73.5341C5.52853 72.5967 5.00132 71.3257 5 70V10C5.00132 8.67432 5.52853 7.40332 6.46593 6.46593C7.40332 5.52853 8.67432 5.00132 10 5H50C51.3257 5.00132 52.5967 5.52853 53.5341 6.46593C54.4715 7.40332 54.9987 8.67432 55 10V30H50V10H10V70H30V75Z" fill="#BB0841"/>
</svg>
