<svg width="72" height="72" viewBox="0 0 72 72" fill="none" xmlns="http://www.w3.org/2000/svg">
<g clip-path="url(#clip0_240_767)">
<path d="M5.63016 70.7601C5.63016 69.1201 5.64015 67.5301 5.62015 65.9301C5.62015 65.6301 5.60015 65.3001 5.47015 65.0401C3.50015 60.9501 2.78015 56.5401 2.11015 52.1101C1.83016 50.2801 1.47016 48.4601 1.24016 46.6301C0.760155 42.7401 1.91016 39.3601 4.58016 36.5101C5.51016 35.5201 6.52015 34.6001 7.44016 33.6001C7.68015 33.3401 7.86016 32.9201 7.86016 32.5801C7.88016 24.0001 7.87015 15.4201 7.88016 6.84006C7.88016 4.10006 9.55016 1.90006 12.1402 1.26006C12.7502 1.11006 13.3902 1.07006 14.0202 1.07006C22.6502 1.06006 31.2702 1.06006 39.9002 1.06006C43.1802 1.06006 44.9902 2.35006 46.0602 5.53006C46.3102 5.53006 46.5802 5.53006 46.8602 5.53006C53.0902 5.53006 59.3302 5.52006 65.5602 5.53006C68.7701 5.53006 71.2301 8.06006 70.8502 11.1101C70.6402 12.7701 70.1102 14.3901 69.7202 16.0301C69.6102 16.5101 69.4902 16.9901 69.3502 17.4601C68.7102 19.7601 66.7702 21.2601 64.3802 21.2801C62.0102 21.3001 59.6502 21.2701 57.2802 21.3001C56.9002 21.3101 56.4602 21.4601 56.1402 21.6801C55.1402 22.3701 54.1702 23.1101 53.2102 23.8601C52.2302 24.6201 51.1802 24.9401 50.0102 24.3701C48.8502 23.8101 48.3602 22.8301 48.3902 21.5701C48.3902 21.5001 48.3702 21.4301 48.3602 21.3201C47.6502 21.3201 46.9402 21.3201 46.1902 21.3201C46.1902 23.5501 46.1902 25.7701 46.1902 27.8401C47.0802 28.1801 47.8902 28.4901 48.7702 28.8201C48.8002 28.7701 48.8902 28.6401 48.9702 28.5101C50.2502 26.6401 52.7102 26.3101 54.3402 27.8901C56.7602 30.2401 59.1602 32.6201 61.4902 35.0601C63.3202 36.9701 64.2702 39.3301 64.1102 41.9701C64.0002 43.7601 64.5302 45.0301 65.8702 46.2201C67.7802 47.9101 69.5102 49.8001 71.2602 51.5501C67.3502 55.4601 63.4602 59.3501 59.4902 63.3301C58.8702 62.6801 58.1902 61.9401 57.4802 61.2301C55.9302 59.6601 54.3702 58.1001 52.8002 56.5601C52.5902 56.3601 52.2502 56.1901 51.9702 56.1901C50.0602 56.1601 48.1402 56.1701 46.1602 56.1701C46.1602 56.7801 46.1702 57.5501 46.1602 58.3101C46.1302 61.5901 43.7002 64.0301 40.4102 64.0401C34.6402 64.0501 28.8802 64.0401 23.1102 64.0401C21.8702 64.0401 21.4202 64.4901 21.4102 65.7801C21.4002 67.2101 21.4102 68.6401 21.4102 70.0701C21.4102 70.2801 21.4102 70.4901 21.4102 70.7501C16.1302 70.7601 10.9202 70.7601 5.63016 70.7601ZM37.0802 23.5801C37.0802 25.8401 37.0802 28.0601 37.0802 30.3401C36.5802 30.3401 36.1302 30.3401 35.5702 30.3401C36.8802 31.5301 38.0702 32.6301 39.3402 33.7801C39.3402 26.5601 39.3402 19.4701 39.3402 12.3801C31.0802 12.3801 22.8802 12.3801 14.6802 12.3801C14.6802 23.0501 14.6802 33.6601 14.6802 44.2701C15.2402 42.2301 15.5102 40.0401 18.0202 39.2801C17.6602 39.2801 17.3002 39.2801 16.9302 39.2801C16.9302 37.0101 16.9302 34.8001 16.9302 32.6001C19.9402 32.6001 22.9002 32.6001 25.8402 32.6001C25.8402 34.8501 25.8402 37.0501 25.8402 39.3101C23.8302 39.3101 21.8702 39.3101 19.9002 39.3101C21.7202 40.0201 22.6402 41.3201 22.7302 43.2301C22.7402 43.5301 22.7702 43.8401 22.7902 44.1401C22.9002 45.5101 23.0102 46.8801 23.1202 48.2401C26.0002 48.2401 28.8202 48.2401 31.6402 48.2401C31.3102 46.2801 31.8002 45.2201 33.4402 44.1601C34.9302 43.2001 36.5602 42.7201 38.3902 42.5601C38.2402 42.3401 38.0202 42.2101 37.8402 42.0401C35.0402 39.4401 32.2402 36.8401 29.4402 34.2401C28.4002 33.2701 27.9202 32.1301 28.2502 30.7101C28.2802 30.6001 28.2902 30.4801 28.2902 30.3601C28.2202 28.1101 28.1402 25.8601 28.0702 23.5701C31.1402 23.5801 34.0902 23.5801 37.0802 23.5801ZM45.3702 42.3701C45.1402 42.1601 44.9602 42.0001 44.7902 41.8501C40.7602 38.1601 36.7402 34.4701 32.7102 30.7801C32.0402 30.1601 31.2402 30.1501 30.7102 30.7201C30.2102 31.2501 30.2702 31.9701 30.9202 32.5701C35.3902 36.7101 39.8702 40.8401 44.3502 44.9701C44.8402 45.4201 45.3402 45.8701 45.8402 46.3301C45.2002 46.9401 44.7002 47.4201 44.1602 47.9401C43.7702 47.5801 43.3502 47.1901 42.9202 46.7901C40.5002 44.5701 37.2602 44.3201 34.5302 46.1401C34.0302 46.4701 33.6102 46.8401 33.7902 47.5101C33.9802 48.2001 34.5302 48.3101 35.1702 48.3301C37.3902 48.3801 39.4002 49.0701 41.1602 50.4401C41.8402 50.9701 42.5002 51.5401 43.1702 52.0901C44.3402 53.0501 45.6502 53.7301 47.1602 53.8401C48.7002 53.9601 50.2502 53.9501 51.7902 53.9301C52.1402 53.9301 52.5702 53.7501 52.8102 53.5101C55.3302 51.0301 57.7702 48.4501 60.3602 46.0401C61.5302 44.9601 61.9702 43.8501 61.9102 42.2701C61.8102 39.8501 61.0502 37.8001 59.3202 36.1001C57.2102 34.0301 55.1402 31.9301 53.0502 29.8401C52.2802 29.0701 51.5602 28.9801 50.9802 29.5801C50.4202 30.1601 50.5102 30.8601 51.2502 31.6001C52.0402 32.3901 52.8402 33.1801 53.6002 33.9501C53.0602 34.5101 52.5702 35.0301 52.0302 35.5901C50.4302 33.9901 48.8702 32.4101 47.2902 30.8401C46.6402 30.1901 45.9202 30.1501 45.3702 30.6801C44.8202 31.2201 44.8602 31.9501 45.5002 32.6001C46.6402 33.7501 47.7802 34.9001 48.9302 36.0301C49.3802 36.4701 49.8802 36.8501 50.2402 37.1601C49.6202 37.8501 49.1502 38.3801 48.6302 38.9601C47.0502 37.3701 45.5002 35.8101 43.9402 34.2501C43.2602 33.5701 42.5202 33.5101 41.9702 34.0701C41.4202 34.6301 41.4902 35.3501 42.1802 36.0401C43.5702 37.4401 44.9602 38.8301 46.3502 40.2201C46.5202 40.4001 46.6902 40.5801 46.8702 40.7701C46.3702 41.3201 45.8902 41.8301 45.3702 42.3701ZM7.88016 36.5101C7.12016 37.2501 6.37015 37.8601 5.77015 38.5901C3.88016 40.8701 3.07016 43.5001 3.50016 46.4401C3.85016 48.8501 4.30016 51.2401 4.66016 53.6501C5.16016 57.0401 5.83015 60.3901 7.31015 63.5101C7.45015 63.8101 7.52015 64.0701 7.97015 64.0701C11.6702 64.0501 15.3802 64.0601 19.0802 64.0401C19.2702 64.0401 19.5702 63.8601 19.6402 63.6901C20.4502 61.8101 21.1802 59.8901 21.2502 57.8301C21.3202 55.7301 21.2302 53.6201 21.1102 51.5201C20.9502 48.6901 20.7002 45.8601 20.4602 43.0401C20.3802 42.1501 19.8202 41.6001 19.0602 41.5501C18.3002 41.5001 17.6902 41.9801 17.4702 42.8401C17.1802 43.9501 16.9902 45.0901 16.6102 46.1701C15.7802 48.5501 14.9302 50.9301 13.9602 53.2601C13.4102 54.5801 11.9902 55.2201 10.6602 55.0201C9.29016 54.8101 8.22015 53.7901 7.96016 52.4101C7.90016 52.0701 7.90016 51.7101 7.90016 51.3601C7.88016 46.4501 7.88016 41.5201 7.88016 36.5101ZM19.1302 3.43006C19.0202 3.37006 18.9802 3.34006 18.9402 3.34006C17.3002 3.33006 15.6602 3.32006 14.0202 3.32006C11.4402 3.32006 10.1302 4.64006 10.1302 7.22006C10.1302 21.8901 10.1302 36.5701 10.1302 51.2401C10.1302 51.4301 10.1302 51.6201 10.1302 51.8001C10.1402 52.3101 10.4002 52.6601 10.8902 52.7701C11.3902 52.8901 11.7902 52.6601 11.9702 52.2001C12.1602 51.7101 12.3702 51.1801 12.3702 50.6701C12.3902 37.4301 12.3902 24.1801 12.3902 10.9401C12.3902 10.6701 12.3902 10.4001 12.3902 10.0701C12.7702 10.0701 13.0402 10.0701 13.3202 10.0701C21.7802 10.0701 30.2402 10.0701 38.7002 10.0801C39.2102 10.0801 39.4602 10.0101 39.6002 9.42006C39.9502 7.88006 40.9002 6.74006 42.3402 6.06006C42.7502 5.86006 43.2002 5.73006 43.6202 5.58006C43.2202 4.22006 42.0002 3.35006 40.4602 3.32006C39.2202 3.30006 37.9802 3.32006 36.7302 3.32006C36.1302 3.32006 35.5302 3.32006 34.8802 3.32006C34.8802 3.76006 34.8902 4.11006 34.8802 4.46006C34.8402 6.33006 33.4602 7.78006 31.6002 7.80006C28.5302 7.84006 25.4602 7.84006 22.3902 7.80006C20.5602 7.78006 19.1902 6.33006 19.1302 4.50006C19.1202 4.14006 19.1302 3.77006 19.1302 3.43006ZM50.6402 19.0401C50.6402 19.9501 50.6102 20.7501 50.6602 21.5401C50.6702 21.8101 50.8002 22.1901 51.0002 22.2901C51.1902 22.3901 51.5802 22.2601 51.8002 22.1001C53.0402 21.2101 54.2302 20.2701 55.4702 19.3801C55.7502 19.1801 56.1402 19.0501 56.4902 19.0501C59.0702 19.0201 61.6502 19.0401 64.2202 19.0301C65.7802 19.0301 66.8502 18.2101 67.2302 16.7001C67.6802 14.9301 68.1301 13.1601 68.5402 11.3801C68.9902 9.44006 67.6802 7.78006 65.6802 7.78006C58.6502 7.77006 51.6202 7.77006 44.5902 7.78006C42.6002 7.78006 41.3002 9.46006 41.7502 11.4001C42.1402 13.0901 42.5802 14.7601 43.0002 16.4401C43.4802 18.3201 44.4102 19.0301 46.3702 19.0301C47.7602 19.0401 49.1602 19.0401 50.6402 19.0401ZM23.4702 52.8101C24.9802 52.8101 26.4302 52.8101 27.8802 52.8101C29.6302 52.8201 30.6402 54.0401 30.3202 55.7701C29.9102 58.0101 28.1202 59.5301 25.8402 59.5601C24.9802 59.5701 24.1302 59.5601 23.2902 59.5601C23.1002 60.3601 22.9402 61.0601 22.7702 61.7501C22.8802 61.7801 22.9302 61.8001 22.9702 61.8001C28.8702 61.8001 34.7802 61.8201 40.6802 61.7901C42.4102 61.7801 43.8102 60.3101 43.8702 58.5701C43.9002 57.5901 43.8902 56.6001 43.8702 55.6201C43.8602 55.4301 43.7502 55.1701 43.6002 55.0501C42.4702 54.1801 41.2902 53.3801 40.1802 52.4901C38.5902 51.2001 36.8002 50.5401 34.7502 50.5501C31.1902 50.5601 27.6302 50.5501 24.0702 50.5501C23.8302 50.5501 23.5802 50.5501 23.2902 50.5501C23.3602 51.3701 23.4102 52.0701 23.4702 52.8101ZM59.6102 60.0301C62.4102 57.2301 65.2202 54.4201 67.9202 51.7201C66.2902 50.0701 64.6002 48.3701 63.0102 46.7501C60.2402 49.5201 57.4402 52.3201 54.6702 55.0901C56.3002 56.7201 57.9802 58.4001 59.6102 60.0301ZM7.93015 66.3401C7.93015 67.1201 7.93015 67.8301 7.93015 68.5301C11.6802 68.5301 15.3702 68.5301 19.0802 68.5301C19.0802 67.7801 19.0802 67.0701 19.0802 66.3401C15.3502 66.3401 11.6602 66.3401 7.93015 66.3401ZM32.6302 3.37006C28.8402 3.37006 25.1302 3.37006 21.3902 3.37006C21.3902 3.79006 21.3602 4.16006 21.4002 4.53006C21.4702 5.14006 21.8202 5.55006 22.4502 5.55006C25.4902 5.57006 28.5302 5.57006 31.5702 5.55006C32.2302 5.55006 32.5802 5.12006 32.6402 4.47006C32.6502 4.13006 32.6302 3.78006 32.6302 3.37006ZM42.5002 31.4501C42.9702 30.5801 43.3502 29.8701 43.7202 29.1601C43.8102 28.9801 43.8802 28.7701 43.8802 28.5801C43.8902 26.1701 43.8902 23.7501 43.8802 21.3401C43.8802 21.1601 43.8102 20.9001 43.6802 20.8001C43.0302 20.2901 42.3502 19.8201 41.6702 19.3401C41.6702 23.3801 41.6702 27.4901 41.6702 31.6201C42.0402 31.5401 42.3602 31.4801 42.5002 31.4501ZM34.8502 25.8301C33.3602 25.8301 31.9002 25.8301 30.4302 25.8301C30.4302 26.5801 30.4302 27.2901 30.4302 27.9901C31.9302 27.9901 33.3902 27.9901 34.8502 27.9901C34.8502 27.2501 34.8502 26.5601 34.8502 25.8301ZM23.6002 34.8401C22.1102 34.8401 20.6502 34.8401 19.1802 34.8401C19.1802 35.5901 19.1802 36.3001 19.1802 37.0501C19.9502 37.0501 20.6702 37.0501 21.3902 37.0501C22.1302 37.0501 22.8702 37.0501 23.6002 37.0501C23.6002 36.2501 23.6002 35.5601 23.6002 34.8401ZM23.6302 55.0801C23.6302 55.8401 23.6302 56.5401 23.6302 57.2801C24.5102 57.2801 25.3802 57.3501 26.2302 57.2601C27.3402 57.1501 28.1202 56.1501 28.0602 55.0701C26.6102 55.0801 25.1602 55.0801 23.6302 55.0801Z" fill="#BB0841"/>
<path d="M16.9297 14.5699C19.9197 14.5699 22.8597 14.5699 25.8397 14.5699C25.8397 16.7899 25.8397 18.9899 25.8397 21.2399C22.8997 21.2399 19.9397 21.2399 16.9297 21.2399C16.9297 19.0499 16.9297 16.8399 16.9297 14.5699ZM23.5997 16.8299C22.0797 16.8299 20.6297 16.8299 19.1697 16.8299C19.1697 17.5799 19.1697 18.2899 19.1697 18.9899C20.6697 18.9899 22.1297 18.9899 23.5997 18.9899C23.5997 18.2499 23.5997 17.5599 23.5997 16.8299Z" fill="#BB0841"/>
<path d="M28.1602 21.25C28.1602 19.03 28.1602 16.83 28.1602 14.59C31.1202 14.59 34.0802 14.59 37.0802 14.59C37.0802 16.79 37.0802 19 37.0802 21.25C34.1202 21.25 31.1602 21.25 28.1602 21.25ZM30.4102 18.99C31.9302 18.99 33.3802 18.99 34.8202 18.99C34.8202 18.23 34.8202 17.52 34.8202 16.83C33.3202 16.83 31.8802 16.83 30.4102 16.83C30.4102 17.56 30.4102 18.25 30.4102 18.99Z" fill="#BB0841"/>
<path d="M25.8504 23.59C25.8504 25.83 25.8504 28.03 25.8504 30.26C22.8804 30.26 19.9304 30.26 16.9404 30.26C16.9404 28.06 16.9404 25.85 16.9404 23.59C19.8804 23.59 22.8304 23.59 25.8504 23.59ZM23.6004 25.85C22.0804 25.85 20.6204 25.85 19.1604 25.85C19.1604 26.59 19.1604 27.29 19.1604 28.01C20.6504 28.01 22.1104 28.01 23.6004 28.01C23.6004 27.28 23.6004 26.58 23.6004 25.85Z" fill="#BB0841"/>
<path d="M64.1102 10.09C64.1102 10.83 64.1102 11.52 64.1102 12.25C58.1402 12.25 52.2002 12.25 46.2002 12.25C46.2002 11.56 46.2002 10.85 46.2002 10.09C52.1302 10.09 58.0902 10.09 64.1102 10.09Z" fill="#BB0841"/>
<path d="M59.5797 16.77C55.1097 16.77 50.6697 16.77 46.1797 16.77C46.1797 16.04 46.1797 15.33 46.1797 14.58C50.6397 14.58 55.0797 14.58 59.5797 14.58C59.5797 15.27 59.5797 15.98 59.5797 16.77Z" fill="#BB0841"/>
<path d="M35.9901 52.81C38.8401 52.59 39.5501 53.85 39.3801 56.35C39.2601 58.16 37.7601 59.58 35.9501 59.56C34.1701 59.53 32.7401 58.1 32.6301 56.31C32.4601 53.76 33.2601 52.6 35.9901 52.81ZM37.1201 55.09C36.3301 55.09 35.6401 55.09 34.9101 55.09C34.9301 55.82 34.6401 56.63 35.4101 57.07C35.7201 57.25 36.3101 57.25 36.6201 57.08C37.3801 56.64 37.1001 55.83 37.1201 55.09Z" fill="#BB0841"/>
</g>
<defs>
<clipPath id="clip0_240_767">
<rect width="72" height="72" fill="white"/>
</clipPath>
</defs>
</svg>
