<svg width="72" height="72" viewBox="0 0 72 72" fill="none" xmlns="http://www.w3.org/2000/svg">
<path d="M41.1072 47.25H29.4865L29.1684 47.0737C25.1421 44.8411 22.6406 40.5979 22.6406 36C22.6406 29.0213 28.3182 23.3438 35.2969 23.3438C42.2755 23.3438 47.9531 29.0213 47.9531 36C47.9531 40.5979 45.4517 44.8411 41.4256 47.0737L41.1072 47.25ZM30.2271 44.4375H40.367C43.3204 42.6594 45.1409 39.4585 45.1409 36C45.1409 30.5722 40.725 26.1562 35.2972 26.1562C29.8693 26.1562 25.4534 30.5722 25.4534 36C25.4531 39.4585 27.2734 42.6594 30.2271 44.4375Z" fill="#BB0841"/>
<path d="M70.4531 34.5938H33.8906V37.4062H70.4531V34.5938Z" fill="#BB0841"/>
<path d="M35.5781 42.4688L30.7266 36L35.5781 29.5312L37.8281 31.2188L34.2422 36L37.8281 40.7812L35.5781 42.4688Z" fill="#BB0841"/>
<path d="M38.1094 62.7188H32.4844C30.1582 62.7188 28.2656 60.8262 28.2656 58.5V50.0625H42.3281V58.5C42.3281 60.8262 40.4356 62.7188 38.1094 62.7188ZM31.0781 52.875V58.5C31.0781 59.2754 31.709 59.9062 32.4844 59.9062H38.1094C38.8848 59.9062 39.5156 59.2754 39.5156 58.5V52.875H31.0781Z" fill="#BB0841"/>
<path d="M35.2969 71.1562C15.9117 71.1562 0.140625 55.3852 0.140625 36C0.140625 16.6148 15.9117 0.84375 35.2969 0.84375C43.6615 0.84375 51.766 3.83203 58.1175 9.25763C64.3975 14.6228 68.605 22.0396 69.9646 30.1421L70.2394 31.7812H55.9977L55.726 30.7254C53.3289 21.4113 44.928 14.9062 35.2969 14.9062C23.6658 14.9062 14.2031 24.3689 14.2031 36C14.2031 45.0132 19.9004 52.9493 28.2656 55.8951V50.0625H42.3281V55.8945C48.9111 53.5736 53.9648 48.1123 55.7246 41.2743L55.9963 40.2188H70.2394L69.9643 41.8579C68.6047 49.9604 64.3972 57.3775 58.1172 62.7424C51.766 68.168 43.6615 71.1562 35.2969 71.1562ZM35.2969 3.65625C17.4625 3.65625 2.95312 18.1657 2.95312 36C2.95312 53.8343 17.4625 68.3438 35.2969 68.3438C42.9924 68.3438 50.4481 65.5951 56.2905 60.6037C61.6427 56.0315 65.3586 49.8409 66.8714 43.0312H58.1507C55.721 50.9493 49.3425 57.076 41.2723 59.1531L39.5156 59.605V52.875H31.0781V59.605L29.3214 59.1531C18.7639 56.4356 11.3906 46.9147 11.3906 36C11.3906 22.8181 22.115 12.0938 35.2969 12.0938C45.844 12.0938 55.0896 18.979 58.1524 28.9688H66.8714C65.3586 22.1588 61.6427 15.9683 56.2905 11.3962C50.4481 6.40491 42.9924 3.65625 35.2969 3.65625Z" fill="#BB0841"/>
<path d="M36.7031 13.5H33.8906V20.5312H36.7031V13.5Z" fill="#BB0841"/>
<path d="M36.7031 51.4688H33.8906V57.0938H36.7031V51.4688Z" fill="#BB0841"/>
<path d="M50.2118 19.096L45.2402 24.0676L47.229 26.0563L52.2005 21.0847L50.2118 19.096Z" fill="#BB0841"/>
<path d="M20.3813 19.096L18.3926 21.0847L23.3642 26.0563L25.3529 24.0675L20.3813 19.096Z" fill="#BB0841"/>
</svg>
