<svg width="72" height="72" viewBox="0 0 72 72" fill="none" xmlns="http://www.w3.org/2000/svg">
<g clip-path="url(#clip0_240_745)">
<path d="M67.27 0.699951C67.62 0.809951 67.97 0.909951 68.32 1.02995C70.51 1.81995 71.98 3.86995 71.99 6.25995C72.01 9.98995 72 13.7299 72 17.4599C72 29.0499 72 40.6399 72 52.2299C72 55.6399 70.8 57.34 67.55 58.49C67.55 61.06 67.55 63.66 67.55 66.25C67.55 67.89 66.97 69.28 65.78 70.41C64.74 71.39 63.49 71.9 62.07 71.91C54.61 71.92 47.14 71.93 39.68 71.91C36.63 71.9 34.19 69.45 34.19 66.41C34.17 51.55 34.17 36.7 34.19 21.84C34.19 18.75 36.63 16.31 39.71 16.3C47.15 16.28 54.59 16.28 62.03 16.3C65.19 16.31 67.55 18.7899 67.55 22.0499C67.56 33.11 67.55 44.16 67.55 55.22C67.55 55.49 67.55 55.7599 67.55 56.0499C68.74 55.77 69.66 54.59 69.76 53.2799C69.78 53 69.77 52.72 69.77 52.45C69.77 37.25 69.77 22.04 69.77 6.83995C69.77 4.21995 68.5 2.94995 65.9 2.94995C49.35 2.94995 32.8 2.94995 16.25 2.94995C15.95 2.94995 15.65 2.94995 15.25 2.94995C15.25 2.18995 15.25 1.45995 15.25 0.719951C32.59 0.699951 49.93 0.699951 67.27 0.699951ZM36.44 24.09C36.44 37.09 36.44 50.03 36.44 62.95C46.09 62.95 55.69 62.95 65.28 62.95C65.28 49.97 65.28 37.0499 65.28 24.1C63.38 24.1 61.52 24.1 59.66 24.1C59.61 24.27 59.57 24.4 59.53 24.54C58.9 26.7 57.97 27.4 55.73 27.4C52.39 27.4 49.06 27.4 45.72 27.4C43.86 27.4 42.85 26.67 42.27 24.9C42.18 24.6399 42.12 24.37 42.04 24.09C40.18 24.09 38.33 24.09 36.44 24.09ZM65.3 21.84C65.22 19.84 63.81 18.51 61.84 18.5C56.12 18.49 50.39 18.5 44.67 18.5C43 18.5 41.33 18.4799 39.66 18.51C37.82 18.54 36.33 20.1 36.46 21.84C38.58 21.84 40.71 21.84 42.84 21.84C43.73 21.84 44.1 22.1999 44.18 23.07C44.21 23.41 44.26 23.76 44.35 24.1C44.58 24.97 44.86 25.17 45.78 25.17C49.19 25.17 52.59 25.15 56 25.18C56.74 25.19 57.13 24.8899 57.31 24.2199C57.39 23.91 57.47 23.59 57.51 23.27C57.65 22.06 57.91 21.83 59.15 21.83C61.18 21.84 63.22 21.84 65.3 21.84ZM36.39 65.26C36.39 65.61 36.39 65.89 36.39 66.16C36.4 68.27 37.81 69.68 39.93 69.68C47.22 69.68 54.52 69.69 61.81 69.68C64.23 69.68 65.82 67.6 65.21 65.26C55.63 65.26 46.06 65.26 36.39 65.26Z" fill="#BB0841"/>
<path d="M8.58027 0.699951C8.58027 1.40995 8.58027 2.12995 8.58027 2.92995C7.82027 2.92995 7.11027 2.91995 6.40027 2.92995C4.46027 2.95995 3.02027 4.37995 3.02027 6.32995C3.01027 19.89 3.02027 33.4399 3.02027 47C3.02027 47.11 3.03027 47.2299 3.04027 47.41C12.6603 47.41 22.2603 47.41 31.9003 47.41C31.9003 48.1899 31.9003 48.8899 31.9003 49.6399C22.2903 49.6399 12.7003 49.6399 3.14027 49.6399C3.14027 51.09 2.99027 52.51 3.18027 53.88C3.39027 55.34 4.80027 56.31 6.32027 56.33C8.22027 56.35 10.1203 56.34 12.0203 56.34C18.3503 56.34 24.6703 56.34 31.0003 56.34C31.2803 56.34 31.5503 56.34 31.8903 56.34C31.8903 57.07 31.8903 57.77 31.8903 58.5499C29.6203 58.5499 27.3403 58.5499 25.0403 58.5499C24.8503 59.3099 24.6803 60 24.4803 60.77C26.9803 60.77 29.4203 60.77 31.9003 60.77C31.9003 61.5499 31.9003 62.25 31.9003 63.02C30.8203 63.02 29.7603 63.02 28.7003 63.02C26.9903 63.02 25.2703 63.02 23.5603 63.02C22.2503 63.02 21.9303 63.34 21.9403 64.66C21.9403 64.82 21.9403 64.98 21.9403 65.22C25.2703 65.22 28.5703 65.22 31.9103 65.22C31.9103 66 31.9103 66.7 31.9103 67.47C31.5503 67.47 31.2103 67.47 30.8603 67.47C27.6403 67.47 24.4203 67.47 21.2003 67.47C20.0703 67.47 19.7203 67.11 19.7103 65.97C19.7103 65.34 19.6903 64.7199 19.7103 64.0899C19.7603 62.7499 20.3803 61.73 21.5903 61.15C22.0403 60.93 22.2603 60.66 22.3403 60.1899C22.4303 59.6699 22.5803 59.16 22.7203 58.56C22.4203 58.56 22.1703 58.56 21.9203 58.56C16.9103 58.56 11.9103 58.56 6.90027 58.56C3.63027 58.56 1.72027 57.0999 0.860273 53.9399C0.850273 53.8999 0.810273 53.87 0.780273 53.83C0.780273 37.7 0.780273 21.57 0.780273 5.42995C0.830273 5.27995 0.890273 5.12995 0.930273 4.97995C1.37027 3.29995 2.35027 2.04995 3.90027 1.27995C4.42027 1.02995 4.98027 0.889951 5.52027 0.699951C6.54027 0.699951 7.56027 0.699951 8.58027 0.699951Z" fill="#BB0841"/>
<path d="M21.9306 7.84998C22.4606 8.07998 22.9406 8.29998 23.4406 8.47998C23.5906 8.52998 23.8406 8.48998 23.9606 8.38998C24.2806 8.12998 24.5506 7.79998 24.8606 7.51998C25.3806 7.04998 25.9706 7.02998 26.4706 7.51998C27.5206 8.53998 28.5506 9.56998 29.5706 10.62C30.0606 11.12 30.1106 11.82 29.5606 12.21C28.4106 13.02 28.5306 13.92 29.1306 14.94C29.1606 15 29.1906 15.06 29.2406 15.16C29.7306 15.16 30.2406 15.15 30.7506 15.16C31.4906 15.19 31.9206 15.59 31.9306 16.33C31.9506 17.77 31.9506 19.2 31.9306 20.64C31.9206 21.41 31.4806 21.81 30.6906 21.83C30.2106 21.84 29.7206 21.83 29.2306 21.83C29.1806 21.94 29.1506 22.03 29.1006 22.1C28.4706 23.12 28.4206 23.98 29.5406 24.77C30.1206 25.18 30.0506 25.88 29.5306 26.41C28.5406 27.42 27.5406 28.42 26.5306 29.41C25.9706 29.96 25.3006 30.01 24.8306 29.42C24.1006 28.48 23.3406 28.27 22.3506 28.94C22.2406 29.02 22.1006 29.05 21.9206 29.12C21.9206 29.59 21.9306 30.08 21.9206 30.56C21.9006 31.39 21.5006 31.82 20.6906 31.83C19.2806 31.85 17.8606 31.85 16.4506 31.83C15.6706 31.82 15.2806 31.39 15.2406 30.61C15.2406 30.59 15.2406 30.56 15.2406 30.54C15.2006 29 15.2006 28.99 13.7006 28.49C13.5606 28.44 13.3806 28.53 13.2206 28.57C13.1606 28.59 13.1206 28.66 13.0706 28.71C11.4806 30.24 11.4506 30.24 9.87055 28.66C9.13055 27.92 8.39055 27.19 7.66055 26.44C7.09055 25.86 7.10055 25.27 7.66055 24.67C7.68055 24.65 7.69055 24.64 7.71055 24.62C8.79055 23.48 8.80055 23.48 8.03055 22.08C7.95055 21.94 7.67055 21.82 7.49055 21.83C5.01055 21.96 5.19055 21.22 5.22055 19.5C5.23055 18.48 5.21055 17.46 5.23055 16.44C5.24055 15.57 5.64055 15.17 6.51055 15.15C6.97055 15.14 7.44055 15.15 7.93055 15.15C8.15055 14.64 8.39055 14.14 8.57055 13.62C8.62055 13.47 8.56055 13.23 8.46055 13.1C8.21055 12.79 7.90055 12.54 7.64055 12.25C7.12055 11.68 7.11055 11.09 7.66055 10.53C8.65055 9.51998 9.65055 8.51998 10.6606 7.52998C11.1906 7.00998 11.8906 6.93998 12.3006 7.51998C13.0906 8.62998 13.9506 8.58998 14.9706 7.94998C15.0506 7.89998 15.1306 7.86998 15.2406 7.81998C15.2406 7.30998 15.2206 6.79998 15.2406 6.28998C15.2706 5.54998 15.6806 5.12998 16.4206 5.11998C17.8606 5.09998 19.2906 5.09998 20.7306 5.11998C21.4706 5.12998 21.8706 5.55998 21.9006 6.29998C21.9406 6.84998 21.9306 7.35998 21.9306 7.84998ZM19.7106 29.61C19.7106 29.16 19.7206 28.77 19.7106 28.38C19.7006 27.73 20.0306 27.37 20.6206 27.14C21.5206 26.8 22.4206 26.43 23.3006 26.03C23.8506 25.78 24.3406 25.8 24.7606 26.24C25.0406 26.54 25.2906 26.88 25.5506 27.2C26.1806 26.57 26.6806 26.07 27.3006 25.45C27.0306 25.23 26.7406 25.04 26.4906 24.8C25.8506 24.16 25.8406 23.83 26.2406 23.01C26.6106 22.24 26.9306 21.45 27.2106 20.65C27.4906 19.86 27.7606 19.62 28.6206 19.61C28.9806 19.61 29.3406 19.61 29.6806 19.61C29.6806 18.81 29.6806 18.13 29.6806 17.38C29.2506 17.38 28.8706 17.38 28.4806 17.38C27.8406 17.39 27.4706 17.06 27.2406 16.47C26.9006 15.57 26.5306 14.67 26.1306 13.79C25.8806 13.24 25.8906 12.76 26.3406 12.33C26.6406 12.05 26.9706 11.8 27.2806 11.54C26.6606 10.92 26.1606 10.42 25.5406 9.78998C25.3406 10.05 25.1506 10.35 24.9106 10.59C24.2706 11.24 23.9406 11.24 23.1206 10.85C22.3506 10.48 21.5606 10.15 20.7606 9.86998C19.9706 9.58998 19.7206 9.31998 19.7106 8.45998C19.7106 8.09998 19.7106 7.73998 19.7106 7.38998C18.9206 7.38998 18.2306 7.38998 17.4806 7.38998C17.4806 7.73998 17.4806 8.05998 17.4806 8.37998C17.4706 9.32998 17.2606 9.56998 16.3706 9.87998C15.5506 10.17 14.7406 10.52 13.9506 10.91C13.3506 11.2 12.8406 11.19 12.3806 10.69C12.1206 10.4 11.8806 10.09 11.6306 9.77998C11.0106 10.4 10.5106 10.9 9.88055 11.53C10.1506 11.74 10.4506 11.93 10.6906 12.17C11.3406 12.81 11.3406 13.14 10.9406 13.96C10.5706 14.73 10.2506 15.52 9.96055 16.32C9.68055 17.11 9.40055 17.35 8.55055 17.36C8.19055 17.36 7.83055 17.36 7.48055 17.36C7.48055 18.15 7.48055 18.84 7.48055 19.59C7.90055 19.59 8.29056 19.6 8.68055 19.59C9.33055 19.58 9.69055 19.91 9.92055 20.5C10.2606 21.4 10.6306 22.3 11.0306 23.18C11.2806 23.73 11.2706 24.22 10.8206 24.64C10.5206 24.92 10.1906 25.17 9.86055 25.44C10.4806 26.06 10.9906 26.57 11.5706 27.15C11.8606 26.83 12.1306 26.52 12.4106 26.22C12.8406 25.78 13.3206 25.77 13.8706 26.02C14.7506 26.42 15.6506 26.79 16.5506 27.13C17.1406 27.36 17.4706 27.73 17.4606 28.37C17.4506 28.77 17.4606 29.18 17.4606 29.59C18.2606 29.61 18.9306 29.61 19.7106 29.61Z" fill="#BB0841"/>
<path d="M19.7006 42.9799C19.7006 44.1299 19.7006 45.1699 19.7006 46.2699C18.9706 46.2699 18.2706 46.2699 17.4906 46.2699C17.4906 44.7599 17.4506 43.2399 17.5106 41.7199C17.5306 41.1199 17.9906 40.7899 18.6106 40.7699C19.1406 40.7499 19.6706 40.7699 20.1906 40.7699C20.2406 40.6599 20.2606 40.5999 20.3006 40.5399C20.9206 39.5099 21.0106 38.6199 19.8706 37.8099C19.3106 37.4199 19.3706 36.7199 19.8606 36.2199C20.8806 35.1699 21.9106 34.1399 22.9606 33.1199C23.4606 32.6399 24.1606 32.5799 24.5506 33.1399C25.3606 34.2999 26.2606 34.1599 27.2806 33.5599C27.3406 33.5299 27.4006 33.4999 27.5106 33.4499C27.5106 32.9299 27.4906 32.3999 27.5206 31.8699C27.5506 31.1999 27.9606 30.7699 28.6106 30.7599C30.0706 30.7299 31.5206 30.7499 33.0306 30.7499C33.0306 31.4899 33.0306 32.1899 33.0306 32.9499C31.9606 32.9499 30.9006 32.9499 29.7406 32.9499C29.7406 33.3999 29.7406 33.8099 29.7406 34.2099C29.7506 34.8499 29.4206 35.2199 28.8306 35.4499C27.9306 35.7899 27.0306 36.1599 26.1506 36.5599C25.6006 36.8099 25.1206 36.7899 24.6906 36.3499C24.4006 36.0499 24.1406 35.7399 23.8606 35.4299C23.2806 36.0199 22.7806 36.5199 22.1606 37.1399C22.4706 37.3999 22.8106 37.6499 23.1106 37.9399C23.5506 38.3599 23.5606 38.8499 23.3106 39.3999C22.9106 40.2799 22.5406 41.1799 22.2006 42.0799C21.9706 42.6699 21.6006 42.9899 20.9606 42.9899C20.5506 42.9699 20.1606 42.9799 19.7006 42.9799Z" fill="#BB0841"/>
<path d="M25.3203 44.05C25.1603 41.17 27.8403 38.48 30.7903 38.56C30.7903 39.26 30.7903 39.97 30.7903 40.71C28.8203 40.95 27.6903 42.06 27.4603 44.05C26.7303 44.05 26.0203 44.05 25.3203 44.05Z" fill="#BB0841"/>
<path d="M50.9001 31.86C57.5901 31.85 63.0701 37.34 63.0901 44.09C63.1101 50.79 57.6001 56.33 50.9101 56.34C44.1401 56.35 38.6101 50.87 38.6201 44.15C38.6301 37.32 44.0801 31.87 50.9001 31.86ZM50.8701 54.1C56.4001 54.1 60.8801 49.6 60.8701 44.05C60.8701 38.6 56.3701 34.09 50.9201 34.08C45.3601 34.07 40.8501 38.55 40.8501 44.07C40.8501 49.62 45.3301 54.1 50.8701 54.1Z" fill="#BB0841"/>
<path d="M46.4404 22.9099C46.4404 22.1699 46.4404 21.4899 46.4404 20.7699C49.3804 20.7699 52.2904 20.7699 55.2504 20.7699C55.2504 21.4599 55.2504 22.1599 55.2504 22.9099C52.3404 22.9099 49.4204 22.9099 46.4404 22.9099Z" fill="#BB0841"/>
<path d="M55.2807 66.3899C55.2807 67.1299 55.2807 67.8099 55.2807 68.5299C52.3407 68.5299 49.4307 68.5299 46.4707 68.5299C46.4707 67.8399 46.4707 67.1399 46.4707 66.3899C49.3707 66.3899 52.2907 66.3899 55.2807 66.3899Z" fill="#BB0841"/>
<path d="M24.1505 18.5399C24.1205 21.6099 21.6005 24.0799 18.5305 24.0599C15.4705 24.0399 13.0005 21.4999 13.0305 18.4199C13.0605 15.3599 15.6005 12.8999 18.6905 12.9399C21.7205 12.9799 24.1805 15.4999 24.1505 18.5399ZM18.6005 21.8299C20.4405 21.8199 21.9405 20.2999 21.9205 18.4499C21.9105 16.6399 20.3905 15.1499 18.5805 15.1599C16.7505 15.1699 15.2705 16.6599 15.2605 18.4699C15.2505 20.3199 16.7605 21.8399 18.6005 21.8299Z" fill="#BB0841"/>
<path d="M48.5802 42.53C48.8402 42.28 49.0302 42.11 49.2102 41.94C50.9302 40.22 52.6402 38.5 54.3702 36.79C55.0302 36.14 55.5802 36.13 56.2302 36.77C57.2702 37.79 58.3002 38.82 59.3202 39.87C59.9102 40.48 59.9302 41.04 59.3402 41.63C56.0702 44.91 52.8002 48.19 49.5202 51.45C48.9202 52.05 48.3502 52.05 47.7602 51.46C45.9702 49.69 44.1802 47.9 42.4102 46.11C41.7902 45.49 41.8002 44.93 42.4202 44.3C43.4402 43.26 44.4702 42.23 45.5102 41.21C46.1402 40.6 46.6902 40.6 47.3202 41.22C47.7502 41.63 48.1402 42.07 48.5802 42.53ZM48.5502 48.95C51.3202 46.18 54.1002 43.4 56.7902 40.71C56.3502 40.21 55.8302 39.63 55.2902 39.04C55.0902 39.23 54.9202 39.38 54.7602 39.54C53.0702 41.23 51.3902 42.91 49.7002 44.6C48.8602 45.43 48.3802 45.44 47.5402 44.58C47.1802 44.2 46.8702 43.77 46.6002 43.44C45.8602 44.14 45.2902 44.67 44.7702 45.17C46.0702 46.46 47.3502 47.75 48.5502 48.95Z" fill="#BB0841"/>
<path d="M8.5802 0.699951H15.2502V2.92995H7.9502" fill="#BB0841"/>
</g>
<defs>
<clipPath id="clip0_240_745">
<rect width="72" height="72" fill="white"/>
</clipPath>
</defs>
</svg>
