<svg width="72" height="73" viewBox="0 0 72 73" fill="none" xmlns="http://www.w3.org/2000/svg">
<path d="M63.8748 26.3538H41.3748C39.0486 26.3538 37.1561 24.4612 37.1561 22.135V14.5666L29.793 10.885L37.1561 7.20345V5.26001C37.1561 2.93379 39.0486 1.04126 41.3748 1.04126H63.8748C66.201 1.04126 68.0936 2.93379 68.0936 5.26001V22.135C68.0936 24.4612 66.201 26.3538 63.8748 26.3538ZM36.0817 10.885L39.9686 12.8284V22.135C39.9686 22.9104 40.5994 23.5413 41.3748 23.5413H63.8748C64.6502 23.5413 65.2811 22.9104 65.2811 22.135V5.26001C65.2811 4.4846 64.6502 3.85376 63.8748 3.85376H41.3748C40.5994 3.85376 39.9686 4.4846 39.9686 5.26001V8.94157L36.0817 10.885Z" fill="#BB0841"/>
<path d="M61.2031 6.66626H44.3281V9.47876H61.2031V6.66626Z" fill="#BB0841"/>
<path d="M61.2031 12.2913H44.3281V15.1038H61.2031V12.2913Z" fill="#BB0841"/>
<path d="M61.2031 17.9163H44.3281V20.7288H61.2031V17.9163Z" fill="#BB0841"/>
<path d="M34.3438 48.8538H3.40625V30.5725C3.40625 26.6955 6.56047 23.5413 10.4375 23.5413H15.4525L18.875 29.2456L22.2975 23.5413H27.3125C31.1895 23.5413 34.3438 26.6955 34.3438 30.5725V48.8538ZM6.21875 46.0413H31.5313V30.5725C31.5313 28.2463 29.6387 26.3538 27.3125 26.3538H23.89L18.875 34.7119L13.86 26.3538H10.4375C8.11128 26.3538 6.21875 28.2463 6.21875 30.5725V46.0413Z" fill="#BB0841"/>
<path d="M20.2812 36.1975H17.4688V47.4475H20.2812V36.1975Z" fill="#BB0841"/>
<path d="M18.8745 37.8375L10.0928 32.5685L13.3499 24.4252L15.9616 25.4698L13.5938 31.389L18.8745 34.5575L24.1553 31.389L21.7874 25.4698L24.3991 24.4252L27.6563 32.5685L18.8745 37.8375Z" fill="#BB0841"/>
<path d="M18.875 20.7288C13.4472 20.7288 9.03125 16.3129 9.03125 10.885C9.03125 5.45717 13.4472 1.04126 18.875 1.04126C24.3028 1.04126 28.7188 5.45717 28.7188 10.885C28.7188 16.3129 24.3028 20.7288 18.875 20.7288ZM18.875 3.85376C14.998 3.85376 11.8438 7.00798 11.8438 10.885C11.8438 14.762 14.998 17.9163 18.875 17.9163C22.752 17.9163 25.9062 14.762 25.9062 10.885C25.9062 7.00798 22.752 3.85376 18.875 3.85376Z" fill="#BB0841"/>
<path d="M69.5 51.6663H2V54.4788H69.5V51.6663Z" fill="#BB0841"/>
<path d="M65.2813 71.3538H6.21875V51.6663H65.2813V71.3538ZM9.03125 68.5413H62.4688V54.4788H9.03125V68.5413Z" fill="#BB0841"/>
<path d="M56.8438 54.4788H48.4062V39.01H56.8438V54.4788ZM51.2188 51.6663H54.0312V41.8225H51.2188V51.6663Z" fill="#BB0841"/>
<path d="M63.875 48.8538H54.0313V41.8225H51.2188V48.8538H41.375C39.0488 48.8538 37.1562 46.9612 37.1562 44.635V33.385C37.1562 31.0588 39.0488 29.1663 41.375 29.1663H63.875C66.2012 29.1663 68.0938 31.0588 68.0938 33.385V44.635C68.0938 46.9612 66.2012 48.8538 63.875 48.8538ZM56.8438 46.0413H63.875C64.6504 46.0413 65.2813 45.4104 65.2813 44.635V33.385C65.2813 32.6096 64.6504 31.9788 63.875 31.9788H41.375C40.5996 31.9788 39.9688 32.6096 39.9688 33.385V44.635C39.9688 45.4104 40.5996 46.0413 41.375 46.0413H48.4063V39.01H56.8438V46.0413Z" fill="#BB0841"/>
</svg>
